<svg width="20" height="20" viewBox="0 0 20 20" fill="none" xmlns="http://www.w3.org/2000/svg">
<path d="M10.8333 3.33366H5V10.8337H3.33333V3.33366C3.33333 2.41699 4.08333 1.66699 5 1.66699H11.6667L16.6667 6.66699V10.8337H15V7.50033H10.8333V3.33366Z" fill="#0288D1"/>
<path d="M16.7602 14.3375C16.7276 13.9528 16.4667 13.7329 15.9369 13.7329C15.4234 13.7329 15.1952 13.9214 15.187 14.1883C15.1789 14.4788 15.456 14.6437 16.0021 14.7536L16.4912 14.8635C17.7628 15.1226 18.3252 15.7193 18.3333 16.5907C18.3252 17.7056 17.4367 18.3337 15.9451 18.3337C14.4208 18.3337 13.4345 17.6899 13.4182 16.2924H14.9017C14.9262 16.8184 15.3093 17.101 15.9206 17.101C16.4504 17.101 16.7357 16.8891 16.7439 16.5907C16.7357 16.3159 16.4993 16.1589 15.8391 16.0176L15.2441 15.892C14.2089 15.6722 13.5731 15.1775 13.5731 14.2982C13.5649 13.2226 14.5512 12.5003 15.9369 12.5003C17.3552 12.5003 18.2437 13.2305 18.2518 14.3375H16.7602Z" fill="#0288D1"/>
<path d="M12.8294 18.263H8.87611V12.5788H10.4248V17.0539H12.8294V18.263Z" fill="#0288D1"/>
<path d="M5.29582 14.2747L4.30139 12.5788H2.55706L4.31769 15.4209L2.5 18.263H4.26879L5.29582 16.5436H5.34473L6.37992 18.263H8.15685L6.32286 15.4209L8.09165 12.5788H6.35546L5.34473 14.2747H5.29582Z" fill="#0288D1"/>
</svg>
