<svg width="26" height="26" viewBox="0 0 26 26" fill="none" xmlns="http://www.w3.org/2000/svg">
<path d="M16.3334 16.0167C16.8489 16.0167 17.2667 15.5988 17.2667 15.0834C17.2667 14.5679 16.8489 14.15 16.3334 14.15C15.8179 14.15 15.4001 14.5679 15.4001 15.0834C15.4001 15.5988 15.8179 16.0167 16.3334 16.0167Z" fill="currentColor"/>
<path fill-rule="evenodd" clip-rule="evenodd" d="M16.3334 16.75C15.7251 16.75 14.5084 17.05 14.4667 17.65C14.8834 18.2417 15.5667 18.625 16.3334 18.625C17.1001 18.625 17.7834 18.2417 18.2001 17.65C18.1584 17.05 16.9417 16.75 16.3334 16.75Z" fill="currentColor"/>
<path fill-rule="evenodd" clip-rule="evenodd" d="M17.1667 11.4084V7.39169L10.9167 4.66669L4.66675 7.39169V11.4834C4.66675 15.2667 7.33341 18.8084 10.9167 19.6667C11.3751 19.5584 11.8167 19.4 12.2501 19.2084C13.1501 20.4917 14.6417 21.3334 16.3334 21.3334C19.0917 21.3334 21.3334 19.0917 21.3334 16.3334C21.3334 13.8584 19.5334 11.8084 17.1667 11.4084ZM11.3334 16.3334C11.3334 16.8 11.4001 17.2584 11.5251 17.6834C11.3251 17.775 11.1251 17.8667 10.9167 17.9334C8.27508 17.1 6.33341 14.4 6.33341 11.4834V8.48335L10.9167 6.48335L15.5001 8.48335V11.4084C13.1334 11.8084 11.3334 13.8584 11.3334 16.3334ZM16.3334 19.6667C14.4917 19.6667 13.0001 18.175 13.0001 16.3334C13.0001 14.4917 14.4917 13 16.3334 13C18.1751 13 19.6667 14.4917 19.6667 16.3334C19.6667 18.175 18.1751 19.6667 16.3334 19.6667Z" fill="currentColor"/>
</svg>
