<svg width="26" height="26" viewBox="0 0 26 26" fill="none" xmlns="http://www.w3.org/2000/svg">
<path d="M18.8333 4.25H7.16667C6.24167 4.25 5.5 5 5.5 5.91667V17.5833C5.5 18.5 6.24167 19.25 7.16667 19.25H10.5L13 21.75L15.5 19.25H18.8333C19.75 19.25 20.5 18.5 20.5 17.5833V5.91667C20.5 5 19.75 4.25 18.8333 4.25ZM18.8333 17.5833H14.8083L13 19.3917L11.1917 17.5833H7.16667V5.91667H18.8333V17.5833ZM13 11.75C14.375 11.75 15.5 10.625 15.5 9.25C15.5 7.875 14.375 6.75 13 6.75C11.625 6.75 10.5 7.875 10.5 9.25C10.5 10.625 11.625 11.75 13 11.75ZM13 8.41667C13.4583 8.41667 13.8333 8.79167 13.8333 9.25C13.8333 9.70833 13.4583 10.0833 13 10.0833C12.5417 10.0833 12.1667 9.70833 12.1667 9.25C12.1667 8.79167 12.5417 8.41667 13 8.41667ZM18 15.5667C18 13.4833 14.6917 12.5833 13 12.5833C11.3083 12.5833 8 13.4833 8 15.5667V16.75H18V15.5667ZM10.0667 15.0833C10.6833 14.6583 11.925 14.25 13 14.25C14.075 14.25 15.3167 14.6583 15.9333 15.0833H10.0667Z" fill="currentColor"/>
</svg>
