<svg width="26" height="26" viewBox="0 0 26 26" fill="none" xmlns="http://www.w3.org/2000/svg">
<path d="M13.0001 4.66669C8.40008 4.66669 4.66675 8.40002 4.66675 13C4.66675 17.6 8.40008 21.3334 13.0001 21.3334C17.6001 21.3334 21.3334 17.6 21.3334 13C21.3334 8.40002 17.6001 4.66669 13.0001 4.66669ZM19.6084 12.1667H13.8334V6.39169C16.8417 6.76669 19.2334 9.15835 19.6084 12.1667ZM6.33341 13C6.33341 9.60835 8.88341 6.80002 12.1667 6.39169V19.6084C8.88341 19.2 6.33341 16.3917 6.33341 13ZM13.8334 19.6084V13.8334H19.6084C19.2334 16.8417 16.8417 19.2334 13.8334 19.6084Z" fill="currentColor"/>
</svg>
