<svg width="20" height="20" viewBox="0 0 20 20" fill="none" xmlns="http://www.w3.org/2000/svg">
<path d="M10.8317 3.33366H4.99837V10.8337H3.33171V3.33366C3.33171 2.41699 4.08171 1.66699 4.99837 1.66699H11.665L16.665 6.66699V10.8337H14.9984V7.50033H10.8317V3.33366Z" fill="#0288D1"/>
<path fill-rule="evenodd" clip-rule="evenodd" d="M2.42188 18.3337V12.4417H4.92839C6.24674 12.4417 7.10937 13.2718 7.10937 14.5088C7.10937 15.7702 6.22233 16.5596 4.87956 16.5596H3.9681V18.3337H2.42188ZM3.9681 15.3551H4.57031C5.15625 15.3551 5.48991 15.0296 5.48991 14.5088C5.48991 13.9961 5.15625 13.6787 4.57031 13.6787H3.9681V15.3551Z" fill="#0288D1"/>
<path fill-rule="evenodd" clip-rule="evenodd" d="M9.95768 18.3337H7.71973V12.4417H9.94141C11.7562 12.4417 12.8874 13.5485 12.8874 15.3877C12.8874 17.2269 11.7562 18.3337 9.95768 18.3337ZM9.26595 17.0153H9.90072C10.8122 17.0153 11.3249 16.6328 11.3249 15.3877C11.3249 14.1426 10.8122 13.7601 9.86003 13.7601H9.26595V17.0153Z" fill="#0288D1"/>
<path d="M17.7539 12.4417H13.6442V18.3337H15.1904V16.0143H17.4935V14.7611H15.1904V13.695H17.7539V12.4417Z" fill="#0288D1"/>
</svg>
