<svg width="26" height="26" viewBox="0 0 26 26" fill="none" xmlns="http://www.w3.org/2000/svg">
<path d="M18.4167 22.1667H6.75001C5.83334 22.1667 5.08334 21.4167 5.08334 20.5V8.83334H6.75001V20.5H18.4167V22.1667ZM15.5 8.83334V7.16667H13.8333V8.83334H12.1667V10.5H13.8333V12.1667H15.5V10.5H17.1667V8.83334H15.5ZM17.1667 13.8333H12.1667V15.5H17.1667V13.8333ZM15.9167 3.83334H10.0833C9.16668 3.83334 8.42501 4.58334 8.42501 5.5L8.41668 17.1667C8.41668 18.0833 9.15834 18.8333 10.075 18.8333H19.25C20.1667 18.8333 20.9167 18.0833 20.9167 17.1667V8.83334L15.9167 3.83334ZM19.25 17.1667H10.0833V5.5H15.225L19.25 9.525V17.1667Z" fill="currentColor"/>
</svg>
