<svg width="20" height="20" viewBox="0 0 20 20" fill="none" xmlns="http://www.w3.org/2000/svg">
<path d="M11.6666 1.66666H4.99992C4.08325 1.66666 3.33325 2.41666 3.33325 3.33332V16.6667C3.33325 17.5833 4.08325 18.3333 4.99992 18.3333H14.9999C15.9166 18.3333 16.6666 17.5833 16.6666 16.6667V6.66666L11.6666 1.66666ZM4.99992 16.6667V3.33332H10.8333V6.66666H14.9999V16.6667H4.99992ZM9.16658 15.8333H10.8333V15H11.6666C12.1249 15 12.4999 14.625 12.4999 14.1667V11.6667C12.4999 11.2083 12.1249 10.8333 11.6666 10.8333H9.16658V9.99999H12.4999V8.33332H10.8333V7.49999H9.16658V8.33332H8.33325C7.87492 8.33332 7.49992 8.70832 7.49992 9.16666V11.6667C7.49992 12.125 7.87492 12.5 8.33325 12.5H10.8333V13.3333H7.49992V15H9.16658V15.8333Z" fill="currentColor"/>
</svg>
