<svg width="20" height="20" viewBox="0 0 20 20" fill="none" xmlns="http://www.w3.org/2000/svg">
<path d="M16.4724 10.5497L15.5391 13.858C14.8891 13.4997 14.6474 13.1413 13.3307 11.633C11.9974 13.1497 11.3057 14.1663 9.9974 14.1663C8.7224 14.1663 8.0474 13.208 6.66406 11.633C5.33073 13.1497 5.10573 13.4747 4.45573 13.8413L3.51406 10.5413L9.9974 8.42467L16.4724 10.5497ZM12.4974 0.833008H7.4974V3.33301H4.9974C4.08073 3.33301 3.33073 4.08301 3.33073 4.99967V8.84967L2.25573 9.19967C1.73073 9.35801 1.58073 9.89967 1.70573 10.2663L3.28906 15.833H3.33073C4.66406 15.833 5.8474 15.0997 6.66406 14.1663C7.48073 15.0997 8.66406 15.833 9.9974 15.833C11.3307 15.833 12.5141 15.0997 13.3307 14.1663C14.1474 15.0997 15.3307 15.833 16.6641 15.833H16.7057L18.2974 10.2663C18.3891 9.95801 18.3307 9.38301 17.7474 9.19967L16.6641 8.84967V4.99967C16.6641 4.08301 15.9141 3.33301 14.9974 3.33301H12.4974V0.833008ZM4.9974 8.30801V4.99967H14.9974V8.30801L9.9974 6.66634L4.9974 8.30801ZM13.3307 16.3997C12.3141 17.108 11.1557 17.4663 9.9974 17.4663C8.83906 17.4663 7.68073 17.108 6.66406 16.3997C5.6474 17.108 4.48906 17.4997 3.33073 17.4997H1.66406V19.1663H3.33073C4.48073 19.1663 5.61406 18.8747 6.66406 18.3413C7.71406 18.8747 8.85573 19.1497 9.9974 19.1497C11.1391 19.1497 12.2807 18.883 13.3307 18.3413C14.3807 18.883 15.5141 19.1663 16.6641 19.1663H18.3307V17.4997H16.6641C15.5057 17.4997 14.3474 17.108 13.3307 16.3997Z" fill="currentColor"/>
</svg>
