<svg width="20" height="20" viewBox="0 0 20 20" fill="none" xmlns="http://www.w3.org/2000/svg">
<path fill-rule="evenodd" clip-rule="evenodd" d="M7.375 15.6667L7.70833 18.3333H10.0833C9.55556 17.8056 9.13542 17.1944 8.82292 16.5C8.51042 15.8056 8.34722 15.0625 8.33333 14.2708C8.01389 14.1458 7.71875 13.9896 7.44792 13.8021C7.17708 13.6146 6.92361 13.4028 6.6875 13.1667L4.625 14.0417L3.8125 12.625L5.60417 11.2708C5.53472 11.0625 5.48611 10.8542 5.45833 10.6458C5.43056 10.4375 5.41667 10.2222 5.41667 10C5.41667 9.76389 5.43056 9.54166 5.45833 9.33333C5.48611 9.125 5.53472 8.91666 5.60417 8.70833L3.8125 7.375L4.625 5.95833L6.6875 6.8125C6.99306 6.50694 7.32986 6.24653 7.69792 6.03125C8.06597 5.81597 8.46528 5.65278 8.89583 5.54166L9.1875 3.33333H10.8333L11.1042 5.54166C11.5347 5.65278 11.934 5.81597 12.3021 6.03125C12.6701 6.24653 13.0069 6.51389 13.3125 6.83333L15.375 5.95833L16.1875 7.375L14.875 8.375C15.2361 8.41666 15.5764 8.48958 15.8958 8.59375C16.2153 8.69791 16.5278 8.82639 16.8333 8.97917L18.375 7.8125L16.0833 3.85416L13.6042 4.89583C13.4514 4.78472 13.2951 4.68055 13.1354 4.58333C12.9757 4.48611 12.8056 4.40278 12.625 4.33333L12.2917 1.66666H7.70833L7.375 4.33333C7.20833 4.40278 7.04167 4.48611 6.875 4.58333C6.70833 4.68055 6.54861 4.78472 6.39583 4.89583L3.91667 3.85416L1.625 7.8125L3.77083 9.4375C3.75694 9.53472 3.75 9.62847 3.75 9.71875V10.2812C3.75 10.3715 3.75694 10.4653 3.77083 10.5625L1.625 12.1875L3.91667 16.1458L6.39583 15.1042C6.54861 15.2153 6.70486 15.3194 6.86458 15.4167C7.02431 15.5139 7.19444 15.5972 7.375 15.6667ZM8.86458 11.7187C8.74653 11.9757 8.64583 12.2431 8.5625 12.5208C8.11806 12.2708 7.76736 11.9201 7.51042 11.4687C7.25347 11.0174 7.125 10.5278 7.125 10C7.125 9.19444 7.40625 8.50694 7.96875 7.9375C8.53125 7.36805 9.22222 7.08333 10.0417 7.08333C10.5833 7.08333 11.0764 7.21875 11.5208 7.48958C11.9653 7.76041 12.3125 8.11805 12.5625 8.5625C12.2847 8.63194 12.0208 8.72569 11.7708 8.84375C11.5208 8.9618 11.2778 9.09722 11.0417 9.25C10.9306 9.09722 10.7847 8.97569 10.6042 8.88541C10.4236 8.79514 10.2361 8.75 10.0417 8.75C9.69444 8.75 9.39931 8.87153 9.15625 9.11458C8.91319 9.35764 8.79167 9.65278 8.79167 10C8.79167 10.1944 8.83333 10.3785 8.91667 10.5521C9 10.7257 9.11806 10.8681 9.27083 10.9792C9.11806 11.2153 8.98264 11.4618 8.86458 11.7187ZM11.2188 11.2187C10.4063 12.0312 10 13.0139 10 14.1667C10 15.3194 10.4063 16.3021 11.2188 17.1146C12.0313 17.9271 13.0139 18.3333 14.1667 18.3333C15.3194 18.3333 16.3021 17.9271 17.1146 17.1146C17.9271 16.3021 18.3333 15.3194 18.3333 14.1667C18.3333 13.0139 17.9271 12.0312 17.1146 11.2187C16.3021 10.4062 15.3194 10 14.1667 10C13.0139 10 12.0313 10.4062 11.2188 11.2187ZM14.1667 16.6667L11.6667 14.1667L12.25 13.5833L13.75 15.0625V11.6667H14.5833V15.0833L16.0833 13.5833L16.6667 14.1667L14.1667 16.6667Z" fill="currentColor"/>
</svg>
