<svg width="26" height="26" viewBox="0 0 26 26" fill="none" xmlns="http://www.w3.org/2000/svg">
<path d="M17.9999 6.33334V10.5H7.99992V6.33334H17.9999ZM17.9999 4.66667H7.99992C7.08325 4.66667 6.33325 5.41667 6.33325 6.33334V10.5C6.33325 11.4167 7.08325 12.1667 7.99992 12.1667H17.9999C18.9166 12.1667 19.6666 11.4167 19.6666 10.5V6.33334C19.6666 5.41667 18.9166 4.66667 17.9999 4.66667ZM17.9999 15.5V19.6667H7.99992V15.5H17.9999ZM17.9999 13.8333H7.99992C7.08325 13.8333 6.33325 14.5833 6.33325 15.5V19.6667C6.33325 20.5833 7.08325 21.3333 7.99992 21.3333H17.9999C18.9166 21.3333 19.6666 20.5833 19.6666 19.6667V15.5C19.6666 14.5833 18.9166 13.8333 17.9999 13.8333Z" fill="currentColor"/>
</svg>
