<svg width="20" height="20" viewBox="0 0 20 20" fill="none" xmlns="http://www.w3.org/2000/svg">
<path d="M16.6654 6.66634H14.1654V3.33301H2.4987C1.58203 3.33301 0.832031 4.08301 0.832031 4.99967V14.1663H2.4987C2.4987 15.5497 3.61536 16.6663 4.9987 16.6663C6.38203 16.6663 7.4987 15.5497 7.4987 14.1663H12.4987C12.4987 15.5497 13.6154 16.6663 14.9987 16.6663C16.382 16.6663 17.4987 15.5497 17.4987 14.1663H19.1654V9.99967L16.6654 6.66634ZM16.2487 7.91634L17.882 9.99967H14.1654V7.91634H16.2487ZM4.9987 14.9997C4.54036 14.9997 4.16536 14.6247 4.16536 14.1663C4.16536 13.708 4.54036 13.333 4.9987 13.333C5.45703 13.333 5.83203 13.708 5.83203 14.1663C5.83203 14.6247 5.45703 14.9997 4.9987 14.9997ZM6.8487 12.4997C6.39036 11.9913 5.74036 11.6663 4.9987 11.6663C4.25703 11.6663 3.60703 11.9913 3.1487 12.4997H2.4987V4.99967H12.4987V12.4997H6.8487ZM14.9987 14.9997C14.5404 14.9997 14.1654 14.6247 14.1654 14.1663C14.1654 13.708 14.5404 13.333 14.9987 13.333C15.457 13.333 15.832 13.708 15.832 14.1663C15.832 14.6247 15.457 14.9997 14.9987 14.9997Z" fill="white"/>
</svg>
