<svg width="26" height="26" viewBox="0 0 26 26" fill="none" xmlns="http://www.w3.org/2000/svg">
<path d="M6.33325 19.6667V11.8542L4.83325 13L3.83325 11.6667L12.9999 4.66666L22.1666 11.6667L21.1666 12.9792L19.6666 11.8542L12.9999 6.77082L7.99992 10.5833V18H12.1666C12.1666 18.2778 12.1874 18.5555 12.2291 18.8333C12.2708 19.1111 12.3333 19.3889 12.4166 19.6667H6.33325ZM17.1666 22.1667H13.8333V20.9167H15.0208C14.6596 20.5417 14.3714 20.1042 14.1562 19.6042C13.9409 19.1042 13.8333 18.5694 13.8333 18C13.8333 17 14.1492 16.118 14.7812 15.3542C15.4131 14.5903 16.2083 14.1111 17.1666 13.9167V15.2083C16.5555 15.3889 16.0555 15.7326 15.6666 16.2396C15.2777 16.7465 15.0833 17.3333 15.0833 18C15.0833 18.4028 15.1562 18.7778 15.302 19.125C15.4478 19.4722 15.6527 19.7778 15.9166 20.0417V18.8333H17.1666V22.1667ZM18.8333 22.0833V20.7917C19.4583 20.5972 19.9617 20.2465 20.3437 19.7396C20.7256 19.2326 20.9166 18.6528 20.9166 18C20.9166 17.5972 20.8437 17.2222 20.6978 16.875C20.552 16.5278 20.3471 16.2222 20.0833 15.9583V17.1667H18.8333V13.8333H22.1666V15.0833H20.9791C21.3402 15.4583 21.6284 15.8958 21.8437 16.3958C22.0589 16.8958 22.1666 17.4305 22.1666 18C22.1666 19 21.8506 19.8819 21.2187 20.6458C20.5867 21.4097 19.7916 21.8889 18.8333 22.0833Z" fill="currentColor"/>
</svg>
