<svg width="20" height="20" viewBox="0 0 20 20" fill="none" xmlns="http://www.w3.org/2000/svg">
<path d="M14.1667 12.5L15.4583 13.7917C14.6583 15.2 12.6833 16.325 10.8333 16.6V9.16669H13.3333V7.50002H10.8333V6.51669C11.8 6.16669 12.5 5.25002 12.5 4.16669C12.5 2.79169 11.375 1.66669 10 1.66669C8.625 1.66669 7.5 2.79169 7.5 4.16669C7.5 5.25002 8.2 6.16669 9.16667 6.51669V7.50002H6.66667V9.16669H9.16667V16.6C7.31667 16.325 5.34167 15.2 4.54167 13.7917L5.83333 12.5L2.5 10V12.5C2.5 15.7334 6.6 18.3334 10 18.3334C13.4 18.3334 17.5 15.7334 17.5 12.5V10L14.1667 12.5ZM10 3.33335C10.4583 3.33335 10.8333 3.70835 10.8333 4.16669C10.8333 4.62502 10.4583 5.00002 10 5.00002C9.54167 5.00002 9.16667 4.62502 9.16667 4.16669C9.16667 3.70835 9.54167 3.33335 10 3.33335Z" fill="#ECEFF1"/>
</svg>
