<svg width="168" height="36" viewBox="0 0 168 36" fill="none" xmlns="http://www.w3.org/2000/svg">
<g clip-path="url(#clip0_11904_6415)">
<path d="M56.8192 18.4349C56.8192 19.6628 56.5907 20.705 56.1196 21.5759C55.6484 22.4325 55.0202 23.0893 54.2207 23.5462C53.4212 24.003 52.536 24.2315 51.5366 24.2315C50.5372 24.2315 49.6377 24.003 48.8382 23.5462C48.0387 23.0893 47.4105 22.4325 46.9536 21.5759C46.4967 20.7193 46.254 19.677 46.254 18.4492C46.254 17.2214 46.4825 16.1791 46.9536 15.3225C47.4105 14.4659 48.0387 13.8091 48.8382 13.3522C49.6377 12.8954 50.5372 12.6669 51.5366 12.6669C52.536 12.6669 53.4212 12.8954 54.2207 13.3522C55.0202 13.8091 55.6484 14.4659 56.1196 15.3225C56.5765 16.1791 56.8192 17.2214 56.8192 18.4492V18.4349ZM54.4063 18.4349C54.4063 17.6354 54.2921 16.9644 54.0494 16.4218C53.8067 15.8793 53.4783 15.4653 53.05 15.1797C52.6217 14.8942 52.122 14.7514 51.5366 14.7514C50.9512 14.7514 50.4658 14.8942 50.0375 15.1797C49.6092 15.4653 49.2808 15.8793 49.0381 16.4218C48.7954 16.9644 48.6812 17.6354 48.6812 18.4349C48.6812 19.2345 48.7954 19.9055 49.0381 20.448C49.2808 20.9905 49.6092 21.4046 50.0375 21.6901C50.4658 21.9757 50.9655 22.1184 51.5366 22.1184C52.1077 22.1184 52.6074 21.9757 53.05 21.6901C53.4783 21.4046 53.8067 20.9905 54.0494 20.448C54.2921 19.9055 54.4063 19.2345 54.4063 18.4349Z" fill="#E0E0E0"/>
<path d="M58.5719 24.0755V12.8107H63.0121C63.8687 12.8107 64.5969 12.9678 65.1965 13.2962C65.7962 13.6245 66.253 14.0671 66.5671 14.6382C66.8812 15.2093 67.0383 15.8661 67.0383 16.6227C67.0383 17.3794 66.8812 18.0362 66.5528 18.6073C66.2245 19.1784 65.7676 19.621 65.1537 19.9493C64.5398 20.2634 63.8116 20.4205 62.9407 20.4205H60.1138V18.5073H62.5552C63.0121 18.5073 63.3976 18.4217 63.6831 18.2646C63.9687 18.1076 64.2114 17.8791 64.3542 17.5936C64.4969 17.3081 64.5826 16.9797 64.5826 16.6085C64.5826 16.2373 64.5112 15.9089 64.3542 15.6233C64.2114 15.3378 63.9829 15.1236 63.6831 14.9666C63.3833 14.8095 62.9978 14.7382 62.5409 14.7382H60.9419V24.0469H58.5576L58.5719 24.0755Z" fill="#E0E0E0"/>
<path d="M75.566 12.8107H77.9503V20.1207C77.9503 20.9345 77.7504 21.6626 77.3649 22.2765C76.9794 22.8904 76.4226 23.3759 75.723 23.7185C75.0234 24.0612 74.2096 24.2325 73.2816 24.2325C72.3536 24.2325 71.5255 24.0612 70.8259 23.7185C70.1263 23.3759 69.5838 22.8904 69.1983 22.2765C68.8128 21.6626 68.613 20.9487 68.613 20.1207V12.8107H70.9973V19.9208C70.9973 20.3491 71.0972 20.7346 71.2828 21.063C71.4684 21.3913 71.7397 21.6626 72.0823 21.8482C72.425 22.0338 72.8247 22.1338 73.2816 22.1338C73.7385 22.1338 74.1525 22.0338 74.4952 21.8482C74.8378 21.6626 75.1091 21.3913 75.2947 21.063C75.4803 20.7346 75.5802 20.3491 75.5802 19.9208V12.8107H75.566Z" fill="#E0E0E0"/>
<path d="M86.002 16.0515C85.9591 15.6089 85.7735 15.2663 85.4309 15.0236C85.1025 14.7809 84.6456 14.6524 84.0745 14.6524C83.6891 14.6524 83.3607 14.7095 83.0894 14.8094C82.8182 14.9236 82.6183 15.0664 82.4755 15.252C82.3327 15.4376 82.2613 15.666 82.2613 15.8945C82.2613 16.0944 82.3042 16.2657 82.3898 16.4227C82.4755 16.5798 82.6183 16.7083 82.7753 16.8082C82.9466 16.9224 83.1322 17.0081 83.3464 17.0938C83.5606 17.1794 83.789 17.2365 84.046 17.2936L85.0597 17.5364C85.5451 17.6506 86.002 17.7934 86.416 17.979C86.8301 18.1646 87.187 18.393 87.4868 18.65C87.7866 18.9213 88.0151 19.2354 88.1864 19.5923C88.3577 19.9492 88.4434 20.3775 88.4434 20.8344C88.4434 21.5197 88.272 22.1193 87.9151 22.6191C87.5725 23.1188 87.0728 23.5185 86.416 23.7898C85.7593 24.061 84.9883 24.2038 84.0603 24.2038C83.1322 24.2038 82.3613 24.061 81.6903 23.7898C81.0192 23.5185 80.491 23.1045 80.1198 22.5477C79.7486 22.0051 79.5487 21.3198 79.5344 20.506H81.833C81.8616 20.8772 81.9615 21.1913 82.1614 21.4483C82.3613 21.7053 82.6183 21.8909 82.9324 22.0194C83.2607 22.1479 83.6177 22.205 84.0317 22.205C84.4458 22.205 84.7884 22.1479 85.0882 22.0337C85.3881 21.9195 85.6165 21.7481 85.7878 21.5483C85.9591 21.3341 86.0305 21.1057 86.0305 20.8344C86.0305 20.5774 85.9591 20.3633 85.8021 20.1919C85.6593 20.0206 85.4452 19.8778 85.1596 19.7493C84.8741 19.6351 84.5314 19.5209 84.1174 19.421L82.8895 19.1069C81.933 18.8784 81.1906 18.5215 80.6337 18.0218C80.0912 17.5364 79.8057 16.8653 79.8199 16.0373C79.8199 15.3519 79.9913 14.7523 80.3625 14.2526C80.7337 13.7386 81.2334 13.3389 81.8759 13.0533C82.5183 12.7678 83.2465 12.625 84.0745 12.625C84.9026 12.625 85.645 12.7678 86.2732 13.0533C86.9014 13.3389 87.3869 13.7386 87.7295 14.2526C88.0722 14.7666 88.2578 15.3519 88.272 16.023H85.9877L86.002 16.0515Z" fill="#E0E0E0"/>
<path d="M93.2005 14.781V12.825H102.452V14.781H99.0113V24.0755H96.6555V14.781H93.2147H93.2005Z" fill="#E0E0E0"/>
<path d="M107.775 24.2323C106.904 24.2323 106.161 24.061 105.533 23.704C104.905 23.3471 104.434 22.8474 104.091 22.1906C103.749 21.5339 103.592 20.7629 103.592 19.8777C103.592 18.9926 103.763 18.2501 104.091 17.5934C104.42 16.9366 104.905 16.4227 105.519 16.0657C106.133 15.6945 106.847 15.5089 107.675 15.5089C108.232 15.5089 108.746 15.5946 109.231 15.7802C109.716 15.9658 110.13 16.2228 110.502 16.5797C110.873 16.9366 111.144 17.3792 111.344 17.9218C111.544 18.4643 111.644 19.0925 111.644 19.8064V20.4488H104.52V18.9926H109.445C109.445 18.6499 109.374 18.3501 109.231 18.0931C109.088 17.8361 108.888 17.6219 108.631 17.4792C108.374 17.3364 108.075 17.2507 107.732 17.2507C107.389 17.2507 107.061 17.3364 106.79 17.4934C106.518 17.6505 106.304 17.8789 106.147 18.1502C105.99 18.4215 105.919 18.7213 105.904 19.0639V20.4488C105.904 20.8629 105.976 21.2341 106.133 21.5339C106.29 21.8337 106.504 22.0764 106.79 22.2335C107.075 22.4048 107.418 22.4762 107.803 22.4762C108.06 22.4762 108.303 22.4334 108.517 22.362C108.731 22.2906 108.917 22.1764 109.074 22.0336C109.231 21.8908 109.345 21.7052 109.431 21.4911L111.601 21.6338C111.487 22.1478 111.273 22.6047 110.93 22.9902C110.587 23.3757 110.159 23.6755 109.616 23.8896C109.088 24.1038 108.474 24.218 107.775 24.218V24.2323Z" fill="#E0E0E0"/>
<path d="M113.188 24.0743V15.6365H115.458V17.107H115.544C115.701 16.5788 115.958 16.179 116.315 15.922C116.672 15.6508 117.1 15.5223 117.571 15.5223C117.685 15.5223 117.814 15.5223 117.957 15.5508C118.099 15.5651 118.214 15.5794 118.313 15.6079V17.6924C118.199 17.6639 118.056 17.6353 117.857 17.6068C117.657 17.5782 117.485 17.5639 117.328 17.5639C116.986 17.5639 116.672 17.6353 116.4 17.7924C116.129 17.9351 115.915 18.1493 115.758 18.4063C115.601 18.6633 115.529 18.9774 115.529 19.32V24.1029H113.188V24.0743Z" fill="#E0E0E0"/>
<path d="M119.511 24.0743V15.6365H121.738V17.1213H121.838C122.01 16.6216 122.31 16.2361 122.724 15.9506C123.138 15.665 123.623 15.5223 124.194 15.5223C124.765 15.5223 125.265 15.665 125.679 15.9506C126.093 16.2361 126.364 16.6216 126.493 17.1213H126.578C126.75 16.6359 127.064 16.2504 127.521 15.9649C127.978 15.6793 128.506 15.5223 129.134 15.5223C129.919 15.5223 130.562 15.7793 131.061 16.279C131.547 16.7787 131.804 17.4925 131.804 18.4063V24.0886H129.462V18.8774C129.462 18.4063 129.334 18.0493 129.091 17.8209C128.848 17.5925 128.534 17.464 128.163 17.464C127.735 17.464 127.406 17.5925 127.164 17.8637C126.921 18.135 126.807 18.4919 126.807 18.9345V24.0886H124.537V18.8203C124.537 18.4063 124.423 18.0779 124.18 17.8352C123.937 17.5925 123.637 17.464 123.252 17.464C122.995 17.464 122.752 17.5354 122.552 17.6639C122.338 17.7924 122.181 17.978 122.067 18.2064C121.953 18.4348 121.881 18.7061 121.881 19.0202V24.0886H119.54L119.511 24.0743Z" fill="#E0E0E0"/>
<path d="M134.803 14.5379C134.461 14.5379 134.161 14.4237 133.904 14.1952C133.661 13.9668 133.533 13.6812 133.533 13.3671C133.533 13.053 133.661 12.7675 133.904 12.5248C134.147 12.2821 134.446 12.1821 134.789 12.1821C135.132 12.1821 135.431 12.2963 135.688 12.5248C135.931 12.7532 136.06 13.0388 136.06 13.3671C136.06 13.6955 135.931 13.9668 135.688 14.2095C135.446 14.4379 135.146 14.5521 134.789 14.5521L134.803 14.5379ZM133.633 24.0751V15.6372H135.974V24.0751H133.633Z" fill="#E0E0E0"/>
<path d="M140.185 19.1915V24.0743H137.843V15.6365H140.071V17.1213H140.171C140.356 16.6359 140.67 16.2361 141.113 15.9506C141.555 15.665 142.084 15.5223 142.712 15.5223C143.297 15.5223 143.811 15.6508 144.24 15.9078C144.668 16.1648 145.01 16.536 145.253 17.0071C145.496 17.4783 145.61 18.0493 145.61 18.7061V24.0886H143.269V19.1344C143.269 18.6204 143.14 18.2064 142.869 17.9209C142.598 17.6353 142.226 17.4783 141.77 17.4783C141.455 17.4783 141.17 17.5496 140.941 17.6781C140.699 17.8209 140.513 18.0065 140.385 18.2635C140.256 18.5205 140.185 18.8346 140.185 19.1915Z" fill="#E0E0E0"/>
<path d="M149.877 24.2323C149.335 24.2323 148.864 24.1323 148.435 23.9467C148.007 23.7611 147.679 23.4756 147.436 23.1044C147.193 22.7332 147.065 22.262 147.065 21.7052C147.065 21.2341 147.15 20.8486 147.322 20.5202C147.493 20.2061 147.736 19.9491 148.021 19.7492C148.321 19.5494 148.65 19.4066 149.035 19.3067C149.42 19.2067 149.806 19.1353 150.234 19.0925C150.72 19.0354 151.119 18.9926 151.419 18.9497C151.719 18.9069 151.933 18.8355 152.076 18.7498C152.205 18.6642 152.276 18.5214 152.276 18.3358V18.3072C152.276 17.9646 152.162 17.6933 151.948 17.4934C151.733 17.3078 151.419 17.2079 151.02 17.2079C150.591 17.2079 150.263 17.2936 150.006 17.4792C149.763 17.6648 149.592 17.8932 149.506 18.1788L147.336 18.0074C147.45 17.4934 147.664 17.0509 147.978 16.6796C148.293 16.3084 148.721 16.0086 149.235 15.8087C149.749 15.6089 150.334 15.5089 151.02 15.5089C151.491 15.5089 151.933 15.566 152.376 15.6802C152.804 15.7945 153.19 15.9658 153.518 16.1942C153.846 16.4227 154.118 16.7225 154.318 17.0794C154.517 17.4363 154.603 17.8789 154.603 18.3786V24.0752H152.376V22.9045H152.304C152.176 23.1758 151.99 23.4042 151.762 23.6041C151.534 23.804 151.262 23.961 150.948 24.0752C150.634 24.1895 150.263 24.2466 149.849 24.2466L149.877 24.2323ZM150.548 22.619C150.891 22.619 151.191 22.5476 151.462 22.4191C151.733 22.2763 151.933 22.0907 152.09 21.8623C152.247 21.6338 152.319 21.3626 152.319 21.0627V20.1633C152.247 20.2061 152.147 20.2489 152.019 20.2918C151.89 20.3346 151.748 20.3632 151.591 20.3917C151.434 20.4203 151.277 20.4488 151.119 20.4774C150.962 20.5059 150.82 20.5202 150.691 20.5345C150.42 20.5773 150.177 20.6344 149.977 20.7201C149.777 20.8058 149.606 20.92 149.506 21.077C149.392 21.2198 149.335 21.4054 149.335 21.6338C149.335 21.9479 149.449 22.1906 149.677 22.362C149.906 22.5333 150.206 22.619 150.563 22.619H150.548Z" fill="#E0E0E0"/>
<path d="M158.787 12.8107V24.0755H156.445V12.8107H158.787Z" fill="#E0E0E0"/>
<path d="M10.9878 29.914V12.7242L16.7273 6.9848H25.3222V12.7242" stroke="#E0E0E0" stroke-width="1.97026" stroke-linejoin="bevel"/>
<path d="M28.3185 17.55L16.8539 17.6499" stroke="#E0E0E0" stroke-width="1.97026" stroke-linejoin="bevel"/>
<path d="M16.8539 23.3888L34.1293 23.2888L28.4042 29.014H16.8539" stroke="#E0E0E0" stroke-width="1.97026" stroke-linejoin="bevel"/>
</g>
<defs>
<clipPath id="clip0_11904_6415">
<rect width="148.783" height="24" fill="white" transform="translate(10 6)"/>
</clipPath>
</defs>
</svg>
